# xmcd CD database file
#
# Track frame offsets:
#	150
#	22797
#	39233
#	63347
#	83833
#	107336
#	130815
#	157422
#	176435
#	203763
#	225235
#
# Disc length: 3572 seconds
#
# Revision: 0
# Processed by: cddbd v1.5.2PL0 Copyright (c) Steve Scherf et al.
# Submitted via: CDex 1.70beta2
#
DISCID=7a0df20b
DTITLE=Shap - Now or never
DYEAR=1900
DGENRE=Jazz
TTITLE0=Twenty Years Ago
TTITLE1=Since I Met You
TTITLE2=Do It Again
TTITLE3=I'm Gonna Make You Mine
TTITLE4=Now or Never
TTITLE5=Why Are You Avoiding Me
TTITLE6=What You're Feeling
TTITLE7=I Will Fight for You
TTITLE8=Valerie
TTITLE9=Everything
TTITLE10=I'm Gonna Make You Mine -Bonus Tr
EXTD=
EXTT0=
EXTT1=
EXTT2=
EXTT3=
EXTT4=
EXTT5=
EXTT6=
EXTT7=
EXTT8=
EXTT9=
EXTT10=
PLAYORDER=
